<svg width="684" height="617" fill="none" xmlns="http://www.w3.org/2000/svg"><g opacity=".2"><path d="M336.895 435.531a4.03 4.03 0 014.029 6.978 4.03 4.03 0 01-5.503-1.475c-1.1-1.905-.452-4.391 1.474-5.503z" fill="url(#paint0_linear)"/><path d="M418.34 393.96l-.667-1.156-77.051 44.485.667 1.156 77.051-44.485z" fill="url(#paint1_linear)"/><path d="M340.407 222.498a4.029 4.029 0 114.028 6.979 4.029 4.029 0 01-4.028-6.979z" fill="url(#paint2_linear)"/><path d="M421.839 180.905l-.667-1.155-77.072 44.497.667 1.156 77.072-44.498z" fill="url(#paint3_linear)"/><path d="M447.438 218.521a4.03 4.03 0 015.503 1.474 4.03 4.03 0 01-6.978 4.029 4.029 4.029 0 011.475-5.503z" fill="url(#paint4_linear)"/><path d="M528.882 176.949l-.667-1.156-77.051 44.486.667 1.156 77.051-44.486z" fill="url(#paint5_linear)"/><path d="M449.855 263.584a4.03 4.03 0 11-1.475 5.503c-1.121-1.893-.473-4.378 1.475-5.503z" fill="url(#paint6_linear)"/><path d="M531.278 222.025l-.667-1.156-77.073 44.498.667 1.156 77.073-44.498z" fill="url(#paint7_linear)"/><path d="M283.712 435.302a4.03 4.03 0 014.028 6.978 4.03 4.03 0 01-4.028-6.978z" fill="url(#paint8_linear)"/><path d="M365.157 393.731l-.668-1.156-77.051 44.485.667 1.156 77.052-44.485z" fill="url(#paint9_linear)"/><path d="M539.3 359.738a4.029 4.029 0 114.028 6.978 4.029 4.029 0 01-4.028-6.978z" fill="url(#paint10_linear)"/><path d="M620.711 318.158l-.667-1.156-77.051 44.485.667 1.156 77.051-44.485z" fill="url(#paint11_linear)"/><path d="M487.13 261.469a4.029 4.029 0 114.029 6.978 4.029 4.029 0 01-4.029-6.978z" fill="url(#paint12_linear)"/><path d="M530.028 242.152l-.667-1.156-38.526 22.243.667 1.156 38.526-22.243z" fill="url(#paint13_linear)"/><path d="M369.404 504.886a4.03 4.03 0 11-1.475 5.503c-1.1-1.905-.452-4.391 1.475-5.503z" fill="url(#paint14_linear)"/><path d="M412.323 485.558l-.668-1.156-38.525 22.243.667 1.155 38.526-22.242z" fill="url(#paint15_linear)"/><path d="M495.257 101.162a4.03 4.03 0 014.029 6.977 4.03 4.03 0 01-5.503-1.474c-1.1-1.905-.452-4.391 1.474-5.503z" fill="url(#paint16_linear)"/><path d="M538.155 81.845l-.667-1.156-38.526 22.243.667 1.156 38.526-22.243z" fill="url(#paint17_linear)"/><path d="M457.662 186.306a4.029 4.029 0 114.026 6.979 4.029 4.029 0 01-4.026-6.979z" fill="url(#paint18_linear)"/><path d="M500.581 166.978l-.668-1.156-38.525 22.243.667 1.155 38.526-22.242z" fill="url(#paint19_linear)"/><path d="M576.163 268.282a4.03 4.03 0 11-1.475 5.503c-1.121-1.893-.452-4.391 1.475-5.503z" fill="url(#paint20_linear)"/><path d="M619.06 248.966l-.667-1.156-38.525 22.243.667 1.155 38.525-22.242z" fill="url(#paint21_linear)"/><path d="M266.194 382.52a4.029 4.029 0 114.029 6.978 4.029 4.029 0 01-4.029-6.978z" fill="url(#paint22_linear)"/><path d="M347.626 340.927l-.667-1.156-77.073 44.498.668 1.156 77.072-44.498z" fill="url(#paint23_linear)"/><path d="M337.359 183.706a4.029 4.029 0 114.028 6.979 4.029 4.029 0 01-4.028-6.979z" fill="url(#paint24_linear)"/><path d="M418.782 142.147l-.667-1.156-77.051 44.486.667 1.155 77.051-44.485z" fill="url(#paint25_linear)"/><path d="M365.062 459.307a4.029 4.029 0 11-1.474 5.503c-1.134-1.914-.473-4.378 1.474-5.503z" fill="url(#paint26_linear)"/><path d="M446.473 417.727l-.667-1.156-77.073 44.498.668 1.156 77.072-44.498z" fill="url(#paint27_linear)"/><path d="M323.486 96.657a4.029 4.029 0 114.028 6.98 4.029 4.029 0 01-4.028-6.98z" fill="url(#paint28_linear)"/><path d="M404.919 55.065l-.668-1.156-77.072 44.497.667 1.156 77.073-44.497z" fill="url(#paint29_linear)"/><path d="M73.838 403.256a4.03 4.03 0 014.028 6.977 4.03 4.03 0 01-5.503-1.474c-1.133-1.914-.451-4.391 1.475-5.503z" fill="url(#paint30_linear)"/><path d="M344.088 252.649l-.667-1.156-265.89 153.512.666 1.156 265.891-153.512z" fill="url(#paint31_linear)"/><path d="M42.304 316.016a4.03 4.03 0 014.029 6.977 4.03 4.03 0 01-5.503-1.474c-1.134-1.914-.473-4.379 1.474-5.503z" fill="url(#paint32_linear)"/><path d="M454.79 83.317l-.667-1.156L45.988 317.8l.667 1.155L454.79 83.317z" fill="url(#paint33_linear)"/><path d="M311.49 463.298a4.029 4.029 0 114.028 6.976 4.029 4.029 0 01-4.028-6.976z" fill="url(#paint34_linear)"/><path d="M581.74 312.691l-.667-1.156-265.891 153.512.668 1.156 265.89-153.512z" fill="url(#paint35_linear)"/><path d="M179.301 414.309a4.03 4.03 0 11-1.474 5.503c-1.134-1.914-.452-4.391 1.474-5.503z" fill="url(#paint36_linear)"/><path d="M449.543 263.736l-.668-1.156-265.89 153.512.667 1.156 265.891-153.512z" fill="url(#paint37_linear)"/><path d="M118.601 259.695a4.029 4.029 0 114.029 6.978 4.029 4.029 0 01-4.029-6.978z" fill="url(#paint38_linear)"/><path d="M388.851 109.088l-.667-1.156-265.891 153.512.667 1.156 265.891-153.512z" fill="url(#paint39_linear)"/><path d="M428.186 369.098a4.029 4.029 0 11-1.475 5.503c-1.133-1.914-.473-4.378 1.475-5.503z" fill="url(#paint40_linear)"/><path d="M579.661 287.094l-.667-1.156-147.103 84.931.667 1.155 147.103-84.93z" fill="url(#paint41_linear)"/><path d="M260.212 259.067a4.029 4.029 0 114.028 6.978 4.029 4.029 0 01-4.028-6.978z" fill="url(#paint42_linear)"/><path d="M411.688 177.063l-.667-1.156-147.104 84.931.667 1.155 147.104-84.93z" fill="url(#paint43_linear)"/></g><defs><linearGradient id="paint0_linear" x1="358.561" y1="427.694" x2="419.2" y2="392.684" gradientUnits="userSpaceOnUse"><stop stop-color="#A4FFFF"/><stop offset="1" stop-color="#A4FFFF" stop-opacity="0"/></linearGradient><linearGradient id="paint1_linear" x1="358.564" y1="427.696" x2="419.201" y2="392.687" gradientUnits="userSpaceOnUse"><stop stop-color="#A4FFFF"/><stop offset="1" stop-color="#A4FFFF" stop-opacity="0"/></linearGradient><linearGradient id="paint2_linear" x1="362.066" y1="214.645" x2="422.723" y2="179.624" gradientUnits="userSpaceOnUse"><stop stop-color="#A4FFFF"/><stop offset="1" stop-color="#A4FFFF" stop-opacity="0"/></linearGradient><linearGradient id="paint3_linear" x1="362.059" y1="214.648" x2="422.699" y2="179.638" gradientUnits="userSpaceOnUse"><stop stop-color="#A4FFFF"/><stop offset="1" stop-color="#A4FFFF" stop-opacity="0"/></linearGradient><linearGradient id="paint4_linear" x1="469.097" y1="210.686" x2="529.736" y2="175.676" gradientUnits="userSpaceOnUse"><stop stop-color="#A4FFFF"/><stop offset="1" stop-color="#A4FFFF" stop-opacity="0"/></linearGradient><linearGradient id="paint5_linear" x1="469.098" y1="210.685" x2="529.735" y2="175.676" gradientUnits="userSpaceOnUse"><stop stop-color="#A4FFFF"/><stop offset="1" stop-color="#A4FFFF" stop-opacity="0"/></linearGradient><linearGradient id="paint6_linear" x1="471.506" y1="255.757" x2="532.147" y2="220.746" gradientUnits="userSpaceOnUse"><stop stop-color="#A4FFFF"/><stop offset="1" stop-color="#A4FFFF" stop-opacity="0"/></linearGradient><linearGradient id="paint7_linear" x1="471.505" y1="255.757" x2="532.144" y2="220.748" gradientUnits="userSpaceOnUse"><stop stop-color="#A4FFFF"/><stop offset="1" stop-color="#A4FFFF" stop-opacity="0"/></linearGradient><linearGradient id="paint8_linear" x1="305.368" y1="427.467" x2="365.99" y2="392.467" gradientUnits="userSpaceOnUse"><stop stop-color="#A4FFFF"/><stop offset="1" stop-color="#A4FFFF" stop-opacity="0"/></linearGradient><linearGradient id="paint9_linear" x1="305.374" y1="427.465" x2="366.011" y2="392.456" gradientUnits="userSpaceOnUse"><stop stop-color="#A4FFFF"/><stop offset="1" stop-color="#A4FFFF" stop-opacity="0"/></linearGradient><linearGradient id="paint10_linear" x1="560.95" y1="351.891" x2="621.589" y2="316.882" gradientUnits="userSpaceOnUse"><stop stop-color="#A4FFFF"/><stop offset="1" stop-color="#A4FFFF" stop-opacity="0"/></linearGradient><linearGradient id="paint11_linear" x1="560.951" y1="351.89" x2="621.588" y2="316.881" gradientUnits="userSpaceOnUse"><stop stop-color="#A4FFFF"/><stop offset="1" stop-color="#A4FFFF" stop-opacity="0"/></linearGradient><linearGradient id="paint12_linear" x1="508.782" y1="253.633" x2="569.421" y2="218.623" gradientUnits="userSpaceOnUse"><stop stop-color="#A4FFFF"/><stop offset="1" stop-color="#A4FFFF" stop-opacity="0"/></linearGradient><linearGradient id="paint13_linear" x1="499.97" y1="258.722" x2="530.289" y2="241.217" gradientUnits="userSpaceOnUse"><stop stop-color="#A4FFFF"/><stop offset="1" stop-color="#A4FFFF" stop-opacity="0"/></linearGradient><linearGradient id="paint14_linear" x1="391.07" y1="497.05" x2="451.71" y2="462.04" gradientUnits="userSpaceOnUse"><stop stop-color="#A4FFFF"/><stop offset="1" stop-color="#A4FFFF" stop-opacity="0"/></linearGradient><linearGradient id="paint15_linear" x1="382.258" y1="502.138" x2="412.577" y2="484.633" gradientUnits="userSpaceOnUse"><stop stop-color="#A4FFFF"/><stop offset="1" stop-color="#A4FFFF" stop-opacity="0"/></linearGradient><linearGradient id="paint16_linear" x1="516.914" y1="93.333" x2="577.553" y2="58.323" gradientUnits="userSpaceOnUse"><stop stop-color="#A4FFFF"/><stop offset="1" stop-color="#A4FFFF" stop-opacity="0"/></linearGradient><linearGradient id="paint17_linear" x1="508.1" y1="98.42" x2="538.42" y2="80.915" gradientUnits="userSpaceOnUse"><stop stop-color="#A4FFFF"/><stop offset="1" stop-color="#A4FFFF" stop-opacity="0"/></linearGradient><linearGradient id="paint18_linear" x1="479.333" y1="178.465" x2="539.991" y2="143.444" gradientUnits="userSpaceOnUse"><stop stop-color="#A4FFFF"/><stop offset="1" stop-color="#A4FFFF" stop-opacity="0"/></linearGradient><linearGradient id="paint19_linear" x1="470.513" y1="183.557" x2="500.833" y2="166.052" gradientUnits="userSpaceOnUse"><stop stop-color="#A4FFFF"/><stop offset="1" stop-color="#A4FFFF" stop-opacity="0"/></linearGradient><linearGradient id="paint20_linear" x1="597.817" y1="260.454" x2="658.456" y2="225.444" gradientUnits="userSpaceOnUse"><stop stop-color="#A4FFFF"/><stop offset="1" stop-color="#A4FFFF" stop-opacity="0"/></linearGradient><linearGradient id="paint21_linear" x1="589.006" y1="265.543" x2="619.323" y2="248.04" gradientUnits="userSpaceOnUse"><stop stop-color="#A4FFFF"/><stop offset="1" stop-color="#A4FFFF" stop-opacity="0"/></linearGradient><linearGradient id="paint22_linear" x1="287.85" y1="374.68" x2="348.489" y2="339.67" gradientUnits="userSpaceOnUse"><stop stop-color="#A4FFFF"/><stop offset="1" stop-color="#A4FFFF" stop-opacity="0"/></linearGradient><linearGradient id="paint23_linear" x1="287.849" y1="374.679" x2="348.488" y2="339.67" gradientUnits="userSpaceOnUse"><stop stop-color="#A4FFFF"/><stop offset="1" stop-color="#A4FFFF" stop-opacity="0"/></linearGradient><linearGradient id="paint24_linear" x1="359.016" y1="175.869" x2="419.655" y2="140.859" gradientUnits="userSpaceOnUse"><stop stop-color="#A4FFFF"/><stop offset="1" stop-color="#A4FFFF" stop-opacity="0"/></linearGradient><linearGradient id="paint25_linear" x1="359.014" y1="175.869" x2="419.651" y2="140.86" gradientUnits="userSpaceOnUse"><stop stop-color="#A4FFFF"/><stop offset="1" stop-color="#A4FFFF" stop-opacity="0"/></linearGradient><linearGradient id="paint26_linear" x1="386.712" y1="451.467" x2="447.369" y2="416.446" gradientUnits="userSpaceOnUse"><stop stop-color="#A4FFFF"/><stop offset="1" stop-color="#A4FFFF" stop-opacity="0"/></linearGradient><linearGradient id="paint27_linear" x1="386.707" y1="451.471" x2="447.345" y2="416.462" gradientUnits="userSpaceOnUse"><stop stop-color="#A4FFFF"/><stop offset="1" stop-color="#A4FFFF" stop-opacity="0"/></linearGradient><linearGradient id="paint28_linear" x1="345.149" y1="88.811" x2="405.788" y2="53.801" gradientUnits="userSpaceOnUse"><stop stop-color="#A4FFFF"/><stop offset="1" stop-color="#A4FFFF" stop-opacity="0"/></linearGradient><linearGradient id="paint29_linear" x1="345.149" y1="88.812" x2="405.788" y2="53.803" gradientUnits="userSpaceOnUse"><stop stop-color="#A4FFFF"/><stop offset="1" stop-color="#A4FFFF" stop-opacity="0"/></linearGradient><linearGradient id="paint30_linear" x1="110.052" y1="387.009" x2="218.044" y2="324.659" gradientUnits="userSpaceOnUse"><stop stop-color="#A4FFFF"/><stop offset="1" stop-color="#A4FFFF" stop-opacity="0"/></linearGradient><linearGradient id="paint31_linear" x1="137.074" y1="371.409" x2="335.73" y2="256.715" gradientUnits="userSpaceOnUse"><stop stop-color="#A4FFFF"/><stop offset="1" stop-color="#A4FFFF" stop-opacity="0"/></linearGradient><linearGradient id="paint32_linear" x1="78.516" y1="299.777" x2="186.508" y2="237.427" gradientUnits="userSpaceOnUse"><stop stop-color="#A4FFFF"/><stop offset="1" stop-color="#A4FFFF" stop-opacity="0"/></linearGradient><linearGradient id="paint33_linear" x1="137.215" y1="265.888" x2="442.144" y2="89.837" gradientUnits="userSpaceOnUse"><stop stop-color="#A4FFFF"/><stop offset="1" stop-color="#A4FFFF" stop-opacity="0"/></linearGradient><linearGradient id="paint34_linear" x1="347.702" y1="447.04" x2="455.695" y2="384.691" gradientUnits="userSpaceOnUse"><stop stop-color="#A4FFFF"/><stop offset="1" stop-color="#A4FFFF" stop-opacity="0"/></linearGradient><linearGradient id="paint35_linear" x1="374.725" y1="431.44" x2="573.381" y2="316.746" gradientUnits="userSpaceOnUse"><stop stop-color="#A4FFFF"/><stop offset="1" stop-color="#A4FFFF" stop-opacity="0"/></linearGradient><linearGradient id="paint36_linear" x1="215.517" y1="398.068" x2="323.51" y2="335.718" gradientUnits="userSpaceOnUse"><stop stop-color="#A4FFFF"/><stop offset="1" stop-color="#A4FFFF" stop-opacity="0"/></linearGradient><linearGradient id="paint37_linear" x1="242.542" y1="382.466" x2="441.196" y2="267.773" gradientUnits="userSpaceOnUse"><stop stop-color="#A4FFFF"/><stop offset="1" stop-color="#A4FFFF" stop-opacity="0"/></linearGradient><linearGradient id="paint38_linear" x1="154.817" y1="243.445" x2="262.81" y2="181.095" gradientUnits="userSpaceOnUse"><stop stop-color="#A4FFFF"/><stop offset="1" stop-color="#A4FFFF" stop-opacity="0"/></linearGradient><linearGradient id="paint39_linear" x1="181.839" y1="227.844" x2="380.495" y2="113.15" gradientUnits="userSpaceOnUse"><stop stop-color="#A4FFFF"/><stop offset="1" stop-color="#A4FFFF" stop-opacity="0"/></linearGradient><linearGradient id="paint40_linear" x1="464.408" y1="352.85" x2="572.433" y2="290.482" gradientUnits="userSpaceOnUse"><stop stop-color="#A4FFFF"/><stop offset="1" stop-color="#A4FFFF" stop-opacity="0"/></linearGradient><linearGradient id="paint41_linear" x1="464.967" y1="352.527" x2="574.879" y2="289.07" gradientUnits="userSpaceOnUse"><stop stop-color="#A4FFFF"/><stop offset="1" stop-color="#A4FFFF" stop-opacity="0"/></linearGradient><linearGradient id="paint42_linear" x1="296.43" y1="242.823" x2="404.39" y2="180.492" gradientUnits="userSpaceOnUse"><stop stop-color="#A4FFFF"/><stop offset="1" stop-color="#A4FFFF" stop-opacity="0"/></linearGradient><linearGradient id="paint43_linear" x1="297.01" y1="242.488" x2="406.921" y2="179.031" gradientUnits="userSpaceOnUse"><stop stop-color="#A4FFFF"/><stop offset="1" stop-color="#A4FFFF" stop-opacity="0"/></linearGradient></defs></svg>